<svg width="915" height="690" viewBox="0 0 915 690" fill="none" xmlns="http://www.w3.org/2000/svg">
<path d="M822.978 138.987H812.978L696.978 107.987L704.978 7.9873L907.978 71.9873L904.978 125.987C902.978 141.654 895.578 176.387 893.978 185.987C892.378 195.587 882.311 212.654 875.978 219.987C871.978 223.654 861.978 229.987 853.978 225.987C845.978 221.987 840.644 210.321 838.978 204.987C837.644 195.987 834.578 174.387 832.978 159.987C831.378 145.587 825.644 139.987 822.978 138.987Z" fill="#EC7029" stroke="black" stroke-width="12"/>
<path d="M719.394 42.3483L851.978 82.9874" stroke="black" stroke-width="15"/>
<path d="M718.39 72.9875L784.978 92.9874" stroke="black" stroke-width="15"/>
<path d="M531.978 155.987V127.987C531.644 119.321 529.178 98.3873 521.978 83.9873C514.778 69.5873 506.311 55.9873 502.978 50.9873" stroke="black" stroke-width="12"/>
<path d="M552.978 148.987C555.644 147.321 561.378 140.387 562.978 125.987C564.578 111.587 563.644 97.3206 562.978 91.9873" stroke="black" stroke-width="12"/>
<path d="M361.977 604.987L354.477 598.487C301.811 555.154 196.077 467.987 194.477 465.987C192.477 463.487 190.477 458.487 191.977 452.487C193.177 447.687 199.477 444.487 202.477 443.487L473.477 273.987C497.811 259.154 548.277 228.687 555.477 225.487C562.677 222.287 567.811 224.154 569.477 225.487L585.977 235.987C646.477 272.321 767.477 345.987 767.477 349.987V365.487L628.477 447.987L443.977 559.487C423.477 572.321 381.377 598.587 376.977 600.987C372.577 603.387 362.811 605.987 361.977 604.987Z" fill="#F8F7F5" stroke="black" stroke-width="12"/>
<path d="M188.978 533.987L190.978 464.987L363.978 606.987L767.978 366.987L770.978 432.987L363.978 681.987L188.978 533.987Z" fill="#F8F7F5"/>
<path d="M363.978 681.987L188.978 533.987L190.978 464.987L363.978 606.987M363.978 681.987L770.978 432.987L767.978 366.987L363.978 606.987M363.978 681.987V606.987" stroke="black" stroke-width="12"/>
<line x1="368.809" y1="401.25" x2="463.809" y2="481.25" stroke="black" stroke-width="15"/>
<line x1="390.932" y1="451.357" x2="440.932" y2="495.357" stroke="black" stroke-width="15"/>
<circle cx="599.978" cy="329.987" r="11" fill="#020202"/>
<circle cx="623.978" cy="345.987" r="11" fill="#020202"/>
<circle cx="646.978" cy="361.987" r="11" fill="#020202"/>
<circle cx="548.478" cy="294.487" r="13.5" stroke="black" stroke-width="8"/>
<path d="M584.478 402.987L494.478 463.487C464.811 439.821 404.978 391.787 402.978 388.987C400.978 386.187 400.478 382.154 400.478 380.487L482.978 331.987L584.478 402.987Z" fill="#EC7029" stroke="black" stroke-width="12"/>
<path d="M188.978 117.987C198.311 119.654 217.978 122.987 221.978 122.987C226.978 122.987 241.978 124.987 267.978 119.987C288.778 115.987 329.978 110.321 347.978 107.987L421.978 89.9872C430.644 86.9872 448.178 81.3872 448.978 82.9872C449.978 84.9872 454.978 100.987 452.978 110.987C450.978 120.987 454.978 125.987 441.978 135.987C431.578 143.987 416.978 151.987 410.978 154.987C414.644 157.321 422.778 162.987 425.978 166.987C429.978 171.987 432.478 180.487 432.978 187.987C433.378 193.987 437.144 208.821 438.978 215.487L441.978 236.987L520.978 320.487C521.644 326.987 522.078 341.787 518.478 348.987C513.978 357.987 498.478 370.487 491.478 370.987C484.478 371.487 468.478 375.487 449.478 374.987C434.278 374.587 405.811 360.487 393.478 353.487L371.478 333.987C363.644 337.654 345.278 345.287 334.478 346.487C323.678 347.687 288.311 344.987 272.978 342.987C280.811 349.987 297.378 365.087 300.978 369.487C305.478 374.987 320.978 400.487 322.478 404.987C323.978 409.487 328.478 417.987 331.478 430.987C334.478 443.987 331.478 458.487 331.478 467.987C331.478 477.487 326.478 492.987 322.478 494.987C319.278 496.587 294.478 508.654 282.478 514.487C276.978 515.821 265.378 517.087 262.978 511.487C259.978 504.487 256.478 487.987 249.978 477.987C243.478 467.987 241.478 458.487 227.978 442.987C214.478 427.487 200.478 414.487 191.478 408.487C182.478 402.487 163.478 390.487 156.478 385.487C149.478 380.487 138.978 371.987 133.978 364.987C128.978 357.987 121.978 347.987 119.478 340.987C117.478 335.387 111.311 327.987 108.478 324.987C105.978 321.321 98.7775 313.987 89.9775 313.987H56.9775H6.97754L41.9775 82.9873L75.9775 93.9873L104.978 100.987L133.978 107.987L188.978 117.987Z" fill="#F8F7F5"/>
<path d="M188.978 117.987C198.311 119.654 217.978 122.987 221.978 122.987C226.978 122.987 241.978 124.987 267.978 119.987C288.778 115.987 329.978 110.321 347.978 107.987L421.978 89.9872C430.644 86.9872 448.178 81.3872 448.978 82.9872C449.978 84.9872 454.978 100.987 452.978 110.987C450.978 120.987 454.978 125.987 441.978 135.987C431.578 143.987 416.978 151.987 410.978 154.987M188.978 117.987C187.811 126.154 185.278 144.187 184.478 150.987C183.478 159.487 175.978 206.487 169.978 226.987C163.978 247.487 148.978 276.487 142.978 288.987C138.178 298.987 117.978 317.154 108.478 324.987M188.978 117.987L133.978 107.987L104.978 100.987M410.978 154.987C414.644 157.321 422.778 162.987 425.978 166.987C429.978 171.987 432.478 180.487 432.978 187.987C433.378 193.987 437.144 208.821 438.978 215.487L441.978 236.987L520.978 320.487C521.644 326.987 522.078 341.787 518.478 348.987C513.978 357.987 498.478 370.487 491.478 370.987C484.478 371.487 468.478 375.487 449.478 374.987C434.278 374.587 405.811 360.487 393.478 353.487L371.478 333.987C363.644 337.654 345.278 345.287 334.478 346.487C323.678 347.687 288.311 344.987 272.978 342.987C280.811 349.987 297.378 365.087 300.978 369.487C305.478 374.987 320.978 400.487 322.478 404.987C323.978 409.487 328.478 417.987 331.478 430.987C334.478 443.987 331.478 458.487 331.478 467.987C331.478 477.487 326.478 492.987 322.478 494.987C319.278 496.587 294.478 508.654 282.478 514.487C276.978 515.821 265.378 517.087 262.978 511.487C259.978 504.487 256.478 487.987 249.978 477.987C243.478 467.987 241.478 458.487 227.978 442.987C214.478 427.487 200.478 414.487 191.478 408.487C182.478 402.487 163.478 390.487 156.478 385.487C149.478 380.487 138.978 371.987 133.978 364.987C128.978 357.987 121.978 347.987 119.478 340.987C117.478 335.387 111.311 327.987 108.478 324.987M410.978 154.987C409.311 153.654 401.778 150.987 384.978 150.987C363.978 150.987 340.478 150.987 331.478 150.987C324.278 150.987 308.144 150.987 300.978 150.987M108.478 324.987C105.978 321.321 98.7775 313.987 89.9775 313.987C81.1775 313.987 64.3109 313.987 56.9775 313.987H6.97754L41.9775 82.9873L75.9775 93.9873L104.978 100.987M104.978 100.987C102.978 112.321 98.5775 137.187 96.9775 145.987C94.9775 156.987 86.9775 185.987 84.9775 194.987C83.3775 202.187 70.9775 227.987 64.9775 239.987" stroke="black" stroke-width="12"/>
<path d="M142.978 288.987C138.178 298.987 117.978 317.154 108.478 324.987C105.978 321.321 98.7775 313.987 89.9775 313.987H56.9775H6.97754L41.9775 82.9873L75.9775 93.9873L104.978 100.987L133.978 107.987L188.978 117.987C187.811 126.154 185.278 144.187 184.478 150.987C183.478 159.487 175.978 206.487 169.978 226.987C163.978 247.487 148.978 276.487 142.978 288.987Z" fill="#EC7029"/>
<path d="M104.978 100.987L133.978 107.987L188.978 117.987C187.811 126.154 185.278 144.187 184.478 150.987C183.478 159.487 175.978 206.487 169.978 226.987C163.978 247.487 148.978 276.487 142.978 288.987C138.178 298.987 117.978 317.154 108.478 324.987C105.978 321.321 98.7775 313.987 89.9775 313.987C81.1775 313.987 64.3109 313.987 56.9775 313.987H6.97754L41.9775 82.9873L75.9775 93.9873L104.978 100.987ZM104.978 100.987C102.978 112.321 98.5775 137.187 96.9775 145.987C94.9775 156.987 86.9775 185.987 84.9775 194.987C83.3775 202.187 70.9775 227.987 64.9775 239.987" stroke="black" stroke-width="12"/>
<path d="M441.978 235.987C440.978 234.654 434.978 230.387 418.978 223.987C402.978 217.587 358.311 221.321 337.978 223.987" stroke="black" stroke-width="12"/>
<path d="M142.978 133.487C148.738 133.487 154.478 139.12 154.478 147.487C154.478 155.855 148.738 161.487 142.978 161.487C137.217 161.487 131.478 155.855 131.478 147.487C131.478 139.12 137.217 133.487 142.978 133.487Z" stroke="black" stroke-width="9"/>
<path d="M595.978 202.987L587.978 258.987L749.978 357.987C749.311 353.987 748.378 340.987 749.978 320.987C751.978 295.987 753.978 285.987 755.978 264.987C757.978 243.987 770.978 203.987 776.978 188.987C782.978 173.987 804.311 145.321 811.978 137.987C761.978 119.654 660.178 83.1873 652.978 83.9873C645.778 84.7873 636.644 94.3206 632.978 98.9873C629.311 104.321 619.978 119.587 611.978 137.987C603.978 156.387 597.978 188.987 595.978 202.987Z" fill="#EC7029" stroke="black" stroke-width="12"/>
<path d="M652.161 114.522L740.16 147.522" stroke="black" stroke-width="15"/>
<path d="M638.158 144.521L751.158 189.521" stroke="black" stroke-width="15"/>
<path d="M625.195 175.537L681.195 200.537" stroke="black" stroke-width="15"/>
</svg>
