<svg width="889" height="657" viewBox="0 0 889 657" fill="none" xmlns="http://www.w3.org/2000/svg">
<path d="M662.014 420.613H162.663C118.147 420.613 82.0581 456.871 82.0581 501.6V548.755H742.618V501.6C742.618 456.871 706.52 420.613 662.014 420.613Z" fill="#F8F7F5"/>
<path d="M682.431 420.613C682.431 270.729 561.507 149.218 412.334 149.218C263.169 149.218 142.245 270.72 142.245 420.613" fill="#F8F7F5"/>
<path d="M363.56 60.0977C363.559 66.5324 364.82 72.9043 367.271 78.8494C369.722 84.7945 373.314 90.1965 377.843 94.7468C382.372 99.2971 387.749 102.907 393.667 105.369C399.585 107.832 405.928 109.099 412.333 109.099C418.739 109.099 425.082 107.832 431 105.369C436.917 102.907 442.294 99.2971 446.824 94.7468C451.353 90.1965 454.945 84.7945 457.396 78.8494C459.847 72.9043 461.108 66.5324 461.107 60.0977C461.108 53.663 459.847 47.2911 457.396 41.346C454.945 35.4009 451.353 29.9989 446.824 25.4486C442.294 20.8983 436.917 17.2887 431 14.8261C425.082 12.3635 418.739 11.0959 412.333 11.0959C405.928 11.0959 399.585 12.3635 393.667 14.8261C387.749 17.2887 382.372 20.8983 377.843 25.4486C373.314 29.9989 369.722 35.4009 367.271 41.346C364.82 47.2911 363.559 53.663 363.56 60.0977Z" fill="#EC7029"/>
<path d="M227.117 388.416C231.558 387.461 235.109 383.805 235.744 379.023C245.446 305.152 293.358 240.255 360.765 209.642C366.331 207.117 368.788 200.533 366.259 194.948C363.731 189.364 357.176 186.874 351.618 189.397C314.605 206.282 282.535 232.367 258.465 265.164C234.498 297.795 219.142 335.94 213.816 376.075C213.585 377.836 213.779 379.627 214.382 381.298C214.985 382.969 215.979 384.471 217.281 385.679C218.583 386.887 220.156 387.766 221.867 388.242C223.578 388.718 225.378 388.778 227.117 388.416Z" fill="#010000"/>
<path d="M693.418 415.076C690.538 265.556 571.48 144.142 423.382 138.356V119.165C437.11 116.527 449.488 109.187 458.389 98.4081C467.289 87.6292 472.154 74.0853 472.147 60.1068C472.149 49.9534 469.593 39.963 464.716 31.0579C464.017 29.7835 463.074 28.6597 461.94 27.751C460.806 26.8422 459.504 26.1665 458.108 25.7626C456.712 25.3587 455.25 25.2346 453.806 25.3974C452.362 25.5602 450.964 26.0067 449.693 26.7112C447.126 28.1469 445.231 30.5396 444.422 33.3673C443.613 36.1951 443.955 39.2281 445.373 41.8046C448.44 47.369 450.049 53.689 450.049 60.1068C450.049 81.0046 433.133 98.0001 412.333 98.0001C391.533 98.0001 374.618 81.0046 374.618 60.1068C374.618 39.209 391.533 22.2134 412.324 22.2134C417.471 22.2134 422.458 23.2357 427.142 25.2446C428.478 25.817 429.914 26.1197 431.368 26.1354C432.821 26.151 434.263 25.8793 435.611 25.3357C436.959 24.7922 438.187 23.9876 439.223 22.9682C440.259 21.9488 441.084 20.7347 441.649 19.3957C442.807 16.6912 442.846 13.6377 441.756 10.9049C440.666 8.17206 438.537 5.98301 435.836 4.81789C428.41 1.62358 420.408 -0.0160266 412.324 0.000118077C379.347 0.000118077 352.511 26.9601 352.511 60.1068C352.507 74.0854 357.373 87.6288 366.272 98.4085C375.172 109.188 387.549 116.531 401.276 119.173V138.356C364.748 139.7 328.848 148.255 295.64 163.529C292.97 164.761 290.897 167.001 289.874 169.758C288.851 172.515 288.962 175.565 290.182 178.24C290.779 179.565 291.632 180.759 292.692 181.753C293.753 182.747 294.999 183.522 296.359 184.032C297.72 184.543 299.168 184.779 300.621 184.728C302.073 184.677 303.501 184.339 304.822 183.733C338.538 168.229 375.223 160.243 412.333 160.329C551.613 160.329 665.56 271.36 671.142 409.965C668.109 409.658 665.062 409.504 662.013 409.502H162.662C159.578 409.502 156.538 409.662 153.533 409.965C155.127 368.531 166.613 328.079 187.031 291.99C207.45 255.901 236.207 225.222 270.902 202.516C273.36 200.898 275.077 198.374 275.679 195.494C276.28 192.613 275.716 189.612 274.111 187.147C273.321 185.927 272.298 184.875 271.101 184.053C269.903 183.23 268.555 182.652 267.133 182.352C265.712 182.052 264.245 182.036 262.817 182.305C261.389 182.574 260.028 183.123 258.813 183.92C180.44 235.333 133.071 321.431 131.276 415.076C113.589 421.607 98.3285 433.403 87.5512 448.873C76.774 464.344 70.9975 482.746 71 501.6V548.756C71 554.88 75.9511 559.858 82.0578 559.858H742.618C748.716 559.858 753.667 554.88 753.667 548.756V501.6C753.667 461.893 728.529 427.982 693.418 415.076ZM93.1067 537.645V501.6C93.1067 463.058 124.307 431.716 162.662 431.716H662.004C696.6 431.716 725.364 457.218 730.68 490.498H643.711C637.604 490.498 632.662 495.476 632.662 501.6C632.662 507.733 637.613 512.711 643.711 512.711H731.569V537.645H93.1067Z" fill="#010000"/>
<g filter="url(#filter0_d_163_43)">
<path d="M4 558C4 546.954 12.9543 538 24 538H865C876.046 538 885 546.954 885 558V629C885 640.046 876.046 649 865 649H24C12.9543 649 4 640.046 4 629V558Z" fill="#D9D9D9"/>
<path d="M24 545.5H865C871.904 545.5 877.5 551.096 877.5 558V629C877.5 635.904 871.904 641.5 865 641.5H24C17.0964 641.5 11.5 635.904 11.5 629V558C11.5 551.204 16.9231 545.675 23.6777 545.504L24 545.5Z" stroke="#010000" stroke-width="15"/>
</g>
<rect x="566.597" y="494.188" width="209" height="41" fill="#EC7029"/>
<path d="M572 328L567 377V403L572 438L586 470L624 496H698L729 487L755 466L768 438H786L814 429L830 416L841 396V371L830 342L814 328L786 321H583L572 328Z" fill="#F8F7F5" stroke="black"/>
<path d="M578.606 468.984C566.779 453.048 559.973 432.032 560 406.092V336.503C560.006 322.411 571.417 311.006 585.503 311C585.503 311 633.985 311 683.13 311C732.281 311 782.095 311 784.764 311C821.699 311.006 851.63 340.936 851.635 377.871C851.656 396.32 844.058 412.747 831.961 424.535C819.871 436.351 803.336 443.702 785.233 444.738C783.938 444.807 782.676 444.84 781.447 444.84C778.729 444.84 776.13 444.645 773.622 444.305C767.285 460.01 757.233 473.81 744.425 484.515L744.619 484.353L744.473 484.476C744.058 484.827 743.535 485.232 743.022 485.636H781.21V522.934C781.204 537.882 769.098 549.994 754.143 550H587.142C572.194 549.994 560.081 537.888 560.076 522.934V485.636H594.962C588.873 480.891 583.346 475.39 578.606 468.984ZM576.643 502.203V522.934C576.653 528.731 581.35 533.423 587.142 533.433H754.143C759.94 533.423 764.633 528.731 764.643 522.934V502.203H710.941H626.716H576.643ZM629.557 485.637H708.018C714.721 483.188 720.395 480.416 724.725 477.925C729.315 475.293 732.507 472.91 733.753 471.842L733.661 471.922L733.801 471.81C746.081 461.541 755.378 447.844 760.388 432.215L762.868 424.503L770.634 426.806C773.741 427.728 777.29 428.273 781.447 428.273C782.374 428.273 783.323 428.246 784.3 428.192C798.493 427.388 811.253 421.623 820.378 412.687C829.502 403.73 835.046 391.779 835.068 377.871C835.063 363.952 829.449 351.43 820.335 342.3C811.205 333.181 798.683 327.572 784.763 327.567C779.424 327.567 585.503 327.567 585.503 327.567C580.574 327.572 576.577 331.568 576.567 336.503V406.092C576.594 429.228 582.461 446.317 591.921 459.125C601.17 471.594 614.112 480.212 629.557 485.637Z" fill="#010000"/>
<path d="M781.738 347.262C798.65 347.267 812.342 360.965 812.348 377.872C812.342 394.784 798.645 408.482 781.738 408.487C776.286 408.487 771.276 406.944 767.021 404.599L763.45 402.631V353.113L767.021 351.15C771.276 348.799 776.286 347.256 781.738 347.262ZM777.256 393.975C778.701 394.411 780.19 394.681 781.738 394.681C791.019 394.665 798.526 387.158 798.542 377.871C798.526 368.595 791.013 361.083 781.738 361.067C780.19 361.073 778.702 361.342 777.256 361.773V393.975Z" fill="#010000"/>
<defs>
<filter id="filter0_d_163_43" x="0" y="538" width="889" height="119" filterUnits="userSpaceOnUse" color-interpolation-filters="sRGB">
<feFlood flood-opacity="0" result="BackgroundImageFix"/>
<feColorMatrix in="SourceAlpha" type="matrix" values="0 0 0 0 0 0 0 0 0 0 0 0 0 0 0 0 0 0 127 0" result="hardAlpha"/>
<feOffset dy="4"/>
<feGaussianBlur stdDeviation="2"/>
<feComposite in2="hardAlpha" operator="out"/>
<feColorMatrix type="matrix" values="0 0 0 0 0 0 0 0 0 0 0 0 0 0 0 0 0 0 0.25 0"/>
<feBlend mode="normal" in2="BackgroundImageFix" result="effect1_dropShadow_163_43"/>
<feBlend mode="normal" in="SourceGraphic" in2="effect1_dropShadow_163_43" result="shape"/>
</filter>
</defs>
</svg>
