<svg width="719" height="800" viewBox="0 0 719 800" fill="none" xmlns="http://www.w3.org/2000/svg">
<path d="M705.736 674.027L659.286 633.196L547.684 535.092L504.164 496.836C479.662 475.298 467.259 443.128 470.961 410.717L481.35 319.76C485.892 280.002 479.731 239.751 463.506 203.17L382.466 20.4393C377.156 8.46749 359.264 12.255 359.264 25.3534V449.781C359.264 486.078 371.983 521.23 395.211 549.122L451.729 616.993L546.674 731.008L592.629 786.76L705.736 674.027Z" fill="#F7F6F4"/>
<path d="M13.2344 674.051L59.6842 633.22L171.287 535.115L214.807 496.859C239.308 475.322 251.712 443.152 248.01 410.741L237.621 319.783C233.079 280.026 239.24 239.774 255.465 203.193L336.285 20.4659C341.594 8.49404 359.264 12.2815 359.264 25.3799V449.808C359.264 486.105 346.766 521.256 323.539 549.148L267.13 617.02L172.295 731.035L125.889 786.761L13.2344 674.051Z" fill="#F7F6F4"/>
<path d="M217.94 688.498L107.379 577.939C93.3748 563.934 93.3748 541.223 107.379 527.219C121.384 513.214 144.095 513.214 158.1 527.219L268.66 637.779C282.665 651.784 282.665 674.495 268.66 688.499C254.652 702.504 231.945 702.504 217.94 688.498Z" fill="#EC7029"/>
<path d="M167.22 739.218L56.6592 628.657C42.6546 614.653 42.6546 591.942 56.6592 577.937C70.6639 563.932 93.3747 563.932 107.379 577.937L217.94 688.498C231.944 702.502 231.944 725.213 217.94 739.218C203.932 753.225 181.224 753.225 167.22 739.218Z" fill="#EC7029"/>
<path d="M492.403 688.497L602.963 577.937C616.968 563.932 616.968 541.221 602.963 527.217C588.959 513.212 566.248 513.212 552.243 527.217L441.683 637.777C427.678 651.782 427.678 674.493 441.683 688.497C455.689 702.504 478.398 702.504 492.403 688.497Z" fill="#EC7029"/>
<path d="M543.124 739.218L653.685 628.657C667.69 614.653 667.69 591.942 653.685 577.937C639.68 563.932 616.97 563.932 602.965 577.937L492.404 688.498C478.4 702.502 478.4 725.213 492.404 739.218C506.409 753.225 529.118 753.225 543.124 739.218Z" fill="#EC7029"/>
<path d="M714.479 664.107L671.648 626.459C675.424 619.42 677.427 611.515 677.427 603.301C677.427 590.184 672.318 577.853 663.044 568.581C653.771 559.304 641.44 554.198 628.324 554.198C627.77 554.198 627.22 554.22 626.668 554.239C626.685 553.686 626.709 553.136 626.709 552.581C626.709 539.465 621.599 527.136 612.326 517.859C603.051 508.584 590.72 503.478 577.604 503.478C565.65 503.478 554.356 507.733 545.426 515.506L512.906 486.919C491.67 468.252 480.908 440.336 484.117 412.247L494.506 321.29C499.311 279.224 492.778 236.532 475.612 197.829L394.569 15.0956C389.661 4.03466 377.967 -1.94031 366.132 0.569052C363.685 1.08624 361.402 1.94873 359.302 3.07373C357.205 1.94561 354.925 1.08155 352.482 0.561239C340.719 -1.93094 329.082 4.04716 324.179 15.1081L243.365 197.825C226.199 236.528 219.666 279.218 224.47 321.285L234.859 412.242C238.068 440.331 227.305 468.247 206.07 486.914L169.056 519.448L167.462 517.855C158.187 508.58 145.856 503.473 132.74 503.473C119.625 503.473 107.292 508.583 98.0201 517.855C88.7451 527.131 83.6373 539.461 83.6373 552.576C83.6373 553.131 83.6608 553.681 83.678 554.234C83.128 554.217 82.5764 554.193 82.0217 554.193C68.9061 554.193 56.5734 559.303 47.3015 568.575C38.0266 577.85 32.9188 590.179 32.9188 603.296C32.9188 613.484 36.0156 623.192 41.7375 631.368L4.49857 664.102C-0.993594 668.929 -1.53109 677.296 3.29545 682.785C5.91263 685.765 9.56886 687.285 13.2438 687.285C16.347 687.285 19.4641 686.199 21.9798 683.99L59.9218 650.637L148.339 739.054L115.714 778.289C111.039 783.911 111.808 792.258 117.428 796.933C119.901 798.989 122.901 799.993 125.887 799.993C129.684 799.993 133.456 798.368 136.075 795.218L168.254 756.516C175.585 760.711 183.91 762.96 192.582 762.96C205.698 762.96 218.031 757.85 227.304 748.577C237.302 738.577 242.068 725.304 241.621 712.176C242.18 712.194 242.74 712.216 243.299 712.216C255.874 712.216 268.449 707.43 278.021 697.859C287.296 688.582 292.404 676.252 292.404 663.137C292.404 650.02 287.294 637.688 278.021 628.415L276.233 626.628C276.612 626.27 276.973 625.888 277.313 625.479L333.714 557.62C344.363 544.833 352.952 530.542 359.332 515.309C365.742 530.504 374.361 544.795 385.041 557.62L438.694 622.048L432.323 628.418C423.049 637.693 417.942 650.023 417.942 663.14C417.942 676.255 423.052 688.585 432.323 697.862C441.897 707.435 454.47 712.219 467.045 712.219C467.605 712.219 468.164 712.197 468.723 712.179C468.278 725.308 473.042 738.582 483.044 748.582C492.617 758.155 505.19 762.939 517.765 762.939C528.278 762.939 538.784 759.582 547.543 752.89L582.417 795.182C585.034 798.357 588.821 799.999 592.638 799.999C595.604 799.999 598.587 799.007 601.054 796.974C606.696 792.322 607.498 783.978 602.846 778.336L566.64 734.43L654.465 646.607L697.001 683.996C699.516 686.209 702.632 687.291 705.736 687.291C709.411 687.291 713.068 685.77 715.685 682.791C720.508 677.299 719.971 668.934 714.479 664.107ZM208.577 729.857C204.304 734.13 198.621 736.485 192.579 736.485C186.537 736.485 180.854 734.132 176.581 729.858V729.857L66.0202 619.296C61.7468 615.023 59.3937 609.34 59.3937 603.298C59.3937 597.254 61.7468 591.571 66.0202 587.3C70.2936 583.026 75.9764 580.671 82.0186 580.671C88.0607 580.671 93.7435 583.025 98.017 587.3L164.353 653.634L208.577 697.859C208.581 697.862 208.585 697.866 208.588 697.869C217.398 706.694 217.395 721.04 208.577 729.857ZM259.298 679.135C250.477 687.959 236.126 687.96 227.301 679.135L116.74 568.575C112.468 564.303 110.114 558.62 110.114 552.576C110.114 546.534 112.467 540.851 116.742 536.578C121.014 532.304 126.697 529.951 132.74 529.951C138.784 529.951 144.467 532.306 148.739 536.579L259.299 647.14C263.571 651.412 265.926 657.095 265.926 663.138C265.926 669.181 263.571 674.862 259.298 679.135ZM313.358 540.684L257.499 607.893L187.818 538.212L223.552 506.801C251.296 482.412 265.358 445.938 261.168 409.238L250.779 318.282C246.509 280.896 252.316 242.956 267.576 208.548L346.028 31.1783V137.503C312.34 174.668 292.016 217.357 287.229 261.337C286.277 270.074 285.921 278.998 286.168 287.852C286.368 295.035 292.254 300.723 299.394 300.723C299.518 300.723 299.644 300.721 299.771 300.718C307.08 300.515 312.841 294.424 312.636 287.115C312.422 279.457 312.732 271.748 313.552 264.202C317.207 230.632 330.763 202.229 346.027 179.996V449.803C346.025 483.111 334.425 515.383 313.358 540.684ZM405.386 540.675C384.182 515.209 372.505 482.939 372.505 449.805L372.507 179.359C387.95 201.684 401.735 230.31 405.425 264.201C406.247 271.752 406.556 279.463 406.341 287.112C406.136 294.421 411.894 300.512 419.205 300.716C419.331 300.719 419.458 300.721 419.583 300.721C426.722 300.721 432.608 295.034 432.809 287.852C433.058 279.001 432.7 270.082 431.748 261.335C426.941 217.164 406.46 174.296 372.507 137.017V30.6564L451.405 208.559C466.659 242.954 472.466 280.896 468.195 318.279L457.806 409.235C453.614 445.938 467.675 482.409 495.422 506.798L526.562 534.172L457.492 603.242L405.386 540.675ZM451.044 679.137C446.772 674.863 444.417 669.179 444.417 663.138C444.417 657.095 446.77 651.412 451.044 647.14L561.604 536.578C565.876 532.304 571.559 529.951 577.603 529.951C583.646 529.951 589.329 532.306 593.601 536.579C597.873 540.853 600.228 546.536 600.228 552.578C600.228 558.622 597.874 564.304 593.601 568.576L483.042 679.137C474.222 687.955 459.867 687.959 451.044 679.137ZM533.482 730.11C525.261 738.971 510.497 738.588 501.767 729.855C492.945 721.035 492.945 706.679 501.767 697.859L612.326 587.3C616.737 582.889 622.531 580.682 628.324 580.682C634.118 580.682 639.912 582.889 644.323 587.3C648.596 591.571 650.949 597.254 650.949 603.298C650.949 609.34 648.596 615.024 644.323 619.296C644.323 619.296 535.865 727.541 533.482 730.11Z" fill="#010000"/>
</svg>
